<?xml version="1.0" encoding="utf-8"?>
<!-- Generator: Adobe Illustrator 22.0.0, SVG Export Plug-In . SVG Version: 6.00 Build 0)  -->
<svg version="1.1" id="图层_1" xmlns="http://www.w3.org/2000/svg" xmlns:xlink="http://www.w3.org/1999/xlink" x="0px" y="0px"
	 viewBox="0 0 1024 1024" style="enable-background:new 0 0 1024 1024;" xml:space="preserve">
<style type="text/css">
	.st0{fill-rule:evenodd;clip-rule:evenodd;}
</style>
<defs>
	<symbol id="icon-tel" viewBox="0 0 1024 1024">
		<path class="st0" fill="#cca876" d="M512,0C229.2,0,0,229.2,0,512s229.2,512,512,512s512-229.2,512-512S794.8,0,512,0z M676.9,836.5L676.9,836.5
		c-50.1,31.3-192.7-45-307.3-233.9C254.8,413.8,251.8,250.4,301.9,219c43.5-27.1,100.9-79.1,146.5,18.1
		c45.7,97.3,8.7,112.3-36.1,140.3c-31.4,19.6,6.6,97.9,49.1,167.9c42.5,70,94.3,139.6,125.7,120.1c44.9-28,74.7-54.7,139.7,30.4
		C791.9,780.9,720.3,809.4,676.9,836.5z"/>
	</symbol>	
  <symbol id="icon-help" viewBox="0 0 1024 1024">
		<path fill="#cca876" class="st0" d="M512,0C229.3,0,0,229.2,0,512c0,282.8,229.3,512,512,512s512-229.2,512-512C1024,229.2,794.7,0,512,0z
    M543.5,757.8c-10.3,9.1-22.2,13.7-35.6,13.7c-13.9,0-26.1-4.5-36.6-13.5c-10.4-9-15.6-21.6-15.6-37.8c0-14.4,5-26.6,15.1-36.4
    c10-9.8,22.4-14.8,37.1-14.8c14.4,0,26.5,4.9,36.3,14.8c9.8,9.8,14.7,21.9,14.7,36.4C559,736.1,553.8,748.7,543.5,757.8z
    M671.5,440.3c-7.9,14.7-17.3,27.3-28.2,37.9c-10.9,10.7-30.3,28.5-58.5,53.6c-7.8,7.1-14,13.3-18.6,18.7
    c-4.7,5.3-8.2,10.3-10.4,14.8c-2.3,4.4-4.1,8.9-5.3,13.3c-1.2,4.4-3.2,12.3-5.6,23.5c-4.3,23.8-17.9,35.7-40.8,35.7
    c-11.9,0-21.9-3.9-30-11.7c-8.1-7.8-12.2-19.3-12.2-34.7c0-19.2,3-35.8,8.9-49.9c5.9-14,13.8-26.3,23.7-37
    c9.8-10.7,23-23.3,39.7-37.8c14.6-12.8,25.2-22.5,31.7-29c6.6-6.6,12-13.7,16.5-21.7c4.4-8,6.7-16.6,6.7-26
    c0-18.2-6.8-33.7-20.4-46.2c-13.6-12.5-31.1-18.9-52.6-18.9c-25.2,0-43.6,6.4-55.5,19.1c-11.9,12.7-21.9,31.4-30.2,56.1
    c-7.8,25.8-22.5,38.8-44.2,38.8c-12.8,0-23.6-4.5-32.4-13.5c-8.8-9-13.2-18.8-13.2-29.3c0-21.7,7-43.7,20.9-66
    c13.9-22.2,34.3-40.7,61-55.4c26.7-14.7,58-21.9,93.6-21.9c33.2,0,62.4,6.2,87.8,18.4c25.4,12.2,44.9,28.8,58.8,49.9
    c13.8,21,20.8,43.9,20.8,68.6C683.4,408.7,679.5,425.7,671.5,440.3z"/>
	</symbol>	
  	<symbol id="icon-custom-service" viewBox="0 0 1024 1024">
		<path fill="#cca876" class="st0" d="M958.7,441.8C925.3,226.7,738,62.1,512,62.1c-226,0-413.3,164.7-446.7,379.8C27.5,453.4,0,488.4,0,529.7
		c0,44.9,32.5,82.3,75.4,90.2c0.2,0.1,0.4,0.1,0.6,0.1l0.9,0.2c1,0.1,2.1,0.2,3.2,0.2c20.4,0,32-9.8,32-25.5c0-1.2-0.1-2.5-0.3-3.7
		c-0.1-0.5-0.2-0.9-0.3-1.4c-5.1-25.6-7.8-52.1-7.8-79.2c0-223.9,182.9-405.4,408.4-405.4s408.4,181.5,408.4,405.4
		c0,167.7-102.6,311.7-249,373.3c-7.3-5.3-16.3-8.5-26-8.5c-24,0-43.6,19.4-43.6,43.3c0,23.9,19.5,43.2,43.6,43.2
		c22.3,0,40.7-16.7,43.3-38.2C817.7,869.3,916.1,757,950.6,619.6c41.9-8.8,73.4-45.7,73.4-89.9C1024,488.4,996.5,453.4,958.7,441.8z
		"/>
		<path fill="#cca876" class="st0" d="M860.5,510.7c0-191.1-156-345.9-348.5-345.9S163.5,319.6,163.5,510.7c0,191.1,156,345.9,348.5,345.9
		S860.5,701.8,860.5,510.7z M324.1,419.1c0-15.5,8.3-29.7,21.8-37.5c13.5-7.7,30.1-7.7,43.6,0c13.5,7.7,21.8,22,21.8,37.5
		c0,15.5-8.3,29.7-21.8,37.5c-13.5,7.7-30.1,7.7-43.6,0C332.4,448.9,324.1,434.6,324.1,419.1z M509.3,746
		c-90.2,0-163.4-72.6-163.4-162.2c0-11.9,9.7-21.6,21.8-21.6c12,0,21.8,9.7,21.8,22l0.3,7.5c4.1,62,56.1,111,119.5,111
		c63.6,0,115.7-49.2,119.6-111.4l0.2-7.5l0.4-3.9l1-3.7c3.1-8.2,11.1-14.1,20.4-14.1c12,0,21.8,9.7,21.8,21.6
		C672.6,673.4,599.5,746,509.3,746z M667.2,456.6c-13.5,7.7-30.1,7.7-43.6,0c-13.5-7.7-21.8-22-21.8-37.5c0-15.5,8.3-29.7,21.8-37.5
		c13.5-7.7,30.1-7.7,43.6,0c13.5,7.7,21.8,22,21.8,37.5C689,434.6,680.7,448.9,667.2,456.6z"/>
	</symbol>	
	<symbol id="icon-custom-service-white" viewBox="0 0 1024 1024">
		<path fill="#ffffff" class="st0" d="M958.7,441.8C925.3,226.7,738,62.1,512,62.1c-226,0-413.3,164.7-446.7,379.8C27.5,453.4,0,488.4,0,529.7
		c0,44.9,32.5,82.3,75.4,90.2c0.2,0.1,0.4,0.1,0.6,0.1l0.9,0.2c1,0.1,2.1,0.2,3.2,0.2c20.4,0,32-9.8,32-25.5c0-1.2-0.1-2.5-0.3-3.7
		c-0.1-0.5-0.2-0.9-0.3-1.4c-5.1-25.6-7.8-52.1-7.8-79.2c0-223.9,182.9-405.4,408.4-405.4s408.4,181.5,408.4,405.4
		c0,167.7-102.6,311.7-249,373.3c-7.3-5.3-16.3-8.5-26-8.5c-24,0-43.6,19.4-43.6,43.3c0,23.9,19.5,43.2,43.6,43.2
		c22.3,0,40.7-16.7,43.3-38.2C817.7,869.3,916.1,757,950.6,619.6c41.9-8.8,73.4-45.7,73.4-89.9C1024,488.4,996.5,453.4,958.7,441.8z
		"/>
		<path fill="#ffffff" class="st0" d="M860.5,510.7c0-191.1-156-345.9-348.5-345.9S163.5,319.6,163.5,510.7c0,191.1,156,345.9,348.5,345.9
		S860.5,701.8,860.5,510.7z M324.1,419.1c0-15.5,8.3-29.7,21.8-37.5c13.5-7.7,30.1-7.7,43.6,0c13.5,7.7,21.8,22,21.8,37.5
		c0,15.5-8.3,29.7-21.8,37.5c-13.5,7.7-30.1,7.7-43.6,0C332.4,448.9,324.1,434.6,324.1,419.1z M509.3,746
		c-90.2,0-163.4-72.6-163.4-162.2c0-11.9,9.7-21.6,21.8-21.6c12,0,21.8,9.7,21.8,22l0.3,7.5c4.1,62,56.1,111,119.5,111
		c63.6,0,115.7-49.2,119.6-111.4l0.2-7.5l0.4-3.9l1-3.7c3.1-8.2,11.1-14.1,20.4-14.1c12,0,21.8,9.7,21.8,21.6
		C672.6,673.4,599.5,746,509.3,746z M667.2,456.6c-13.5,7.7-30.1,7.7-43.6,0c-13.5-7.7-21.8-22-21.8-37.5c0-15.5,8.3-29.7,21.8-37.5
		c13.5-7.7,30.1-7.7,43.6,0c13.5,7.7,21.8,22,21.8,37.5C689,434.6,680.7,448.9,667.2,456.6z"/>
	</symbol>
  <symbol id="icon-menu-down" viewBox="0 0 1024 1024">
		<path fill="#cca876" d="M512,956.7c-12.4,0-24.8-4.7-34.2-14.2L21.2,486c-18.9-18.9-18.9-49.6,0-68.5c18.9-18.9,49.6-18.9,68.5,0L512,839.8
	  l422.3-422.3c18.9-18.9,49.6-18.9,68.5,0c18.9,18.9,18.9,49.6,0,68.5L546.2,942.5C536.8,952,524.4,956.7,512,956.7z"/>
	</symbol>	
  <symbol id="icon-menu-up" viewBox="0 0 1024 1024">
		<path fill="#cca876" d="M512,65.3c12.4,0,24.8,4.7,34.2,14.2L1002.8,536c18.9,18.9,18.9,49.6,0,68.5c-18.9,18.9-49.6,18.9-68.5,0L512,182.2
	  L89.7,604.5c-18.9,18.9-49.6,18.9-68.5,0C2.3,585.6,2.3,555,21.2,536L477.8,79.5C487.2,70,499.6,65.3,512,65.3z"/>
	</symbol>
	<symbol id="icon-menu-up-white" viewBox="0 0 1024 1024">
		<path fill="#ffffff" d="M512,65.3c12.4,0,24.8,4.7,34.2,14.2L1002.8,536c18.9,18.9,18.9,49.6,0,68.5c-18.9,18.9-49.6,18.9-68.5,0L512,182.2
	  L89.7,604.5c-18.9,18.9-49.6,18.9-68.5,0C2.3,585.6,2.3,555,21.2,536L477.8,79.5C487.2,70,499.6,65.3,512,65.3z"/>
	</symbol>	
  <symbol id="icon-slider-left" viewBox="0 0 1024 1024">
		<path fill="#cca876" d="M66.4,512c0-12.4,4.7-24.8,14.2-34.2L537.1,21.2c18.9-18.9,49.6-18.9,68.5,0s18.9,49.6,0,68.5L183.3,512l422.3,422.3
	  c18.9,18.9,18.9,49.6,0,68.5c-18.9,18.9-49.6,18.9-68.5,0L80.6,546.2C71.1,536.8,66.4,524.4,66.4,512z"/>
	</symbol>	
  <symbol id="icon-slider-right" viewBox="0 0 1024 1024">
    <path fill="#cca876" d="M957.8,512c0,12.4-4.7,24.8-14.2,34.2l-456.6,456.6c-18.9,18.9-49.6,18.9-68.5,0c-18.9-18.9-18.9-49.6,0-68.5L840.9,512
    L418.6,89.7c-18.9-18.9-18.9-49.6,0-68.5s49.6-18.9,68.5,0l456.6,456.6C953.1,487.2,957.8,499.6,957.8,512z"/>
	</symbol>	
	<symbol id="about_history_01" viewBox="0 0 1024 1024">
		<path fill='#cca876' class="st0" d="M668.4,591.6h-62.6c-8.8,0-15.6,7-15.6,15.9c0,8.9,6.9,15.9,15.6,15.9h62.6c8.8,0,15.6-7,15.6-15.9
		C684,598.6,677.2,591.6,668.4,591.6z"/>
		<path fill='#cca876' class="st0" d="M449.4,400.5h-62.6c-8.8,0-15.6,7-15.6,15.9c0,8.9,6.9,15.9,15.6,15.9h62.6c8.8,0,15.6-7,15.6-15.9
		C465.1,407.5,458.2,400.5,449.4,400.5z"/>
		<path fill='#cca876' class="st0" d="M449.4,496.1h-62.6c-8.8,0-15.6,7-15.6,15.9c0,8.9,6.9,15.9,15.6,15.9h62.6c8.8,0,15.6-7,15.6-15.9
		C465.1,503.1,458.2,496.1,449.4,496.1z"/>
		<path fill='#cca876' class="st0" d="M512,63.5C264.3,63.5,63.5,264.3,63.5,512S264.3,960.5,512,960.5S960.5,759.7,960.5,512S759.7,63.5,512,63.5z
		 M731,719H293c-8.8,0-15.6-7-15.6-15.9c0-8.9,6.9-15.9,15.6-15.9h15.6V368.7c0-35,28.2-63.7,62.6-63.7h93.8
		c34.4,0,62.6,28.7,62.6,63.7v302.5c0,8.9,6.9,15.9,15.6,15.9c8.8,0,15.6-7,15.6-15.9V400.5h93.8c34.4,0,62.6,28.7,62.6,63.7v222.9
		H731c8.8,0,15.6,7,15.6,15.9C746.6,712,739.7,719,731,719z"/>
		<path fill='#cca876' class="st0" d="M668.4,496.1h-62.6c-8.8,0-15.6,7-15.6,15.9c0,8.9,6.9,15.9,15.6,15.9h62.6c8.8,0,15.6-7,15.6-15.9
		C684,503.1,677.2,496.1,668.4,496.1z"/>
		<path fill='#cca876' class="st0" d="M449.4,591.6h-62.6c-8.8,0-15.6,7-15.6,15.9c0,8.9,6.9,15.9,15.6,15.9h62.6c8.8,0,15.6-7,15.6-15.9
		C465.1,598.6,458.2,591.6,449.4,591.6z"/>
	</symbol>	
	<symbol id="about_history_02" viewBox="0 0 1024 1024">
		<path fill='#cca876' class="st0" d="M512,63.5C264.3,63.5,63.5,264.3,63.5,512S264.3,960.5,512,960.5S960.5,759.7,960.5,512S759.7,63.5,512,63.5z
	 M658.8,729.3c0,8.5-4.1,12.7-12.5,17h-8.4c-4.1,0-8.4,0-12.5-4.2l-100.6-67.7l-50.4,50.8c-4.2,4.2-12.6,8.4-21,4.2
	c-8.4-4.2-12.6-12.7-12.6-21.1v-93.1c0-4.2,0-8.4,4.2-12.7l201.4-215.7l-8.4-4.2L415.6,585.7c-8.4,8.5-16.7,8.5-25.2,4.2
	l-100.6-63.5c-4.2,0-8.4-8.5-8.4-17c0-8.5,4.1-17,12.6-17l419.4-211.6c4.2-4.2,12.5-4.2,21,0c8.4,4.2,8.4,12.7,8.4,25.4L658.8,729.3
	z"/>
	</symbol>
	<symbol id="about_history_03" viewBox="0 0 1024 1024">
		<path fill='#cca876' class="st0" d="M512,63.5C264.3,63.5,63.5,264.3,63.5,512S264.3,960.5,512,960.5S960.5,759.7,960.5,512S759.7,63.5,512,63.5z
	 M621.5,698H299c-8.2,0-14.7-6.5-14.7-14.9c0-75.4,46.6-131,112.3-153c-32.3-21.1-53.7-57.6-53.7-99.5
	c0-65.6,52.5-118.8,117.3-118.8c64.8,0,117.3,53.2,117.3,118.8c0,41.9-21.4,78.4-53.7,99.5c65.7,22,112.3,77.5,112.3,153
	C636.2,691.5,629.7,698,621.5,698z M738.8,698.3c-8.2,0-14.7-6.5-14.7-14.9c0-58.2-36.9-106.6-88-125c-32.8-12.2-25.8-34.7,0-50.8
	c26.4-15.4,44-44,44-76.9c0-49-39.6-89.1-88-89.1c-8.2,0-14.7-6.5-14.7-14.8c0-8.3,6.5-14.9,14.7-14.9
	c64.8,0,117.3,53.2,117.3,118.8c0,43.1-22.9,80.2-56.6,101.3c58.9,24.4,100.6,82.9,100.6,151.5C753.5,691.8,747.1,698.3,738.8,698.3
	z"/>
	</symbol>
	<symbol id="about_history_04" viewBox="0 0 1024 1024">
		<path fill='#cca876' class="st0" d="M597.1,521.3c10.2,0,16.3-7.9,16.3-18.2c0-10.3-6-17.5-16.3-17.5l-62,0l40.7-40.9c7.3-7.3,7.3-19.2,0-26.5
		c-7.3-7.3-19.1-7.3-26.4,0L511.7,456l-37.6-37.7c-7.3-7.3-19.1-7.3-26.4,0c-7.3,7.3-7.3,19.2,0,26.5l40.7,40.8l-57.4,0
		c-10.2,0-16.3,7.2-16.3,17.5c0,10.3,6,18.2,16.3,18.2h58.7v22.3H431c-10.2,0-16.3,6.6-16.3,16.9c0,10.3,6,18.8,16.3,18.8h58.7v60.3
		c0,12.8,9.5,22.3,22.3,22.3c12.8,0,22.3-9.5,22.3-22.3v-60.3h64c10.2,0,15.1-6.9,15.1-17.1c0-13.4-7.1-18.6-17.4-18.6h-61.7v-22.3
		H597.1z"/>
		<path fill='#cca876' class="st0" d="M512,63.5C264.3,63.5,63.5,264.3,63.5,512S264.3,960.5,512,960.5S960.5,759.7,960.5,512S759.7,63.5,512,63.5z
		 M737.2,515.5c0,0-2.8,1.1-6.9,1.1h-57.6v178.5c0,25.7-19.3,44.6-44.9,44.6H396.2c-25.6,0-44.9-19-44.9-44.6V516.6h-56.5
		c-0.2,0-0.4,0.1-0.5,0.1c-0.2,0-0.4-0.1-0.5-0.1H293l0-0.1c-14.8-0.7-26.6-12.8-26.6-27.8c0-6.8,2.5-13,6.6-17.8l195.5-171.3
		c11.9-9.6,27-15.4,43.5-15.4c16.3,0,31.3,5.7,43.2,15.2l195.4,171c4.3,4.9,6.9,11.2,6.9,18.3C757.6,501.6,748.9,512.2,737.2,515.5z
		"/>
	</symbol>
	<symbol id="about_history_05" viewBox="0 0 1024 1024">
		<path fill='#cca876' class="st0" d="M416.9,464.7h189c8.7,0,15.8-7,15.8-15.8c0-8.7-7-15.8-15.8-15.8h-189c-8.7,0-15.8,7-15.8,15.8
		C401.1,457.6,408.1,464.7,416.9,464.7z"/>
		<path fill='#cca876' class="st0" d="M416.9,401.6h189c8.7,0,15.8-7,15.8-15.8c0-8.7-7-15.8-15.8-15.8h-189c-8.7,0-15.8,7-15.8,15.8
		C401.1,394.6,408.1,401.6,416.9,401.6z"/>
		<path fill='#cca876' class="st0" d="M479.9,496.9h-63.1c-8.7,0-15.8,7-15.8,15.8c0,8.7,7,15.8,15.8,15.8H480c8.7,0,15.7-7,15.7-15.8
		C495.7,503.9,488.7,496.9,479.9,496.9z"/>
		<path fill='#cca876' class="st0" d="M512,63.5C264.3,63.5,63.5,264.3,63.5,512S264.3,960.5,512,960.5S960.5,759.7,960.5,512S759.7,63.5,512,63.5z
		 M716.6,701.3c0,17.4-14.1,31.5-31.5,31.5H338.9c-17.4-0.1-31.5-14.1-31.5-31.5V322.7c0-17.4,14.1-31.5,31.5-31.5H685
		c17.4,0,31.5,14.1,31.6,31.5V701.3z"/>
		<path fill='#cca876' class="st0" d="M652.9,573.5l-27-0.7l-8-0.2l-7.9-0.2l-6.8-0.1l-3.2,0l-1.6-4.8L583,522.5c-0.7-1.9-2.5-3.2-4.5-3.2
		c-2,0-3.8,1.3-4.5,3.1L558.2,567l-1.7,4.8h-3.2l-6.8,0.1l-8,0.1l-8,0.1l-27,0.3c-2.1,0.1-3.8,1.4-4.5,3.4c-0.6,1.9,0,4,1.6,5.2
		l41.9,31.8L527,662.8c-0.6,1.9,0.1,3.9,1.7,5.2c0.4,0.2,0.9,0.5,1.3,0.6c0.1,0.1,0.3,0.1,0.4,0.1c0.3,0,0.6,0,0.9,0.1
		c0.3,0,0.6-0.1,0.9-0.1c0.2,0,0.3,0,0.5,0c0.4-0.1,0.9-0.3,1.3-0.6l43.6-29.6l43.2,30.1c0.8,0.5,1.7,0.9,2.7,0.9
		c0.9,0,2-0.3,2.8-0.9c1.6-1.2,2.4-3.3,1.8-5.2l-15-50.2l42.3-31.3c1.6-1.2,2.3-3.3,1.8-5.1C656.7,574.8,655,573.6,652.9,573.5z"/>
	</symbol>
	<symbol id="about_history_06" viewBox="0 0 1024 1024">
		<path fill='#cca876' class="st0" d="M575.3,638.4c-15.4,0-27.9,14.5-27.9,32.4v12.7h-71v-12.7c0-17.9-12.5-32.4-27.9-32.4
		c-15.4,0-27.9,14.5-27.9,32.4v64.8c0,17.9,12.5,32.4,27.9,32.4c15.4,0,27.9-14.5,27.9-32.4v-14h71v14c0,17.9,12.5,32.4,27.9,32.4
		c15.4,0,27.9-14.5,27.9-32.4v-64.8C603.2,653,590.7,638.4,575.3,638.4z M593.4,735.7c0,12.4-8.1,22.5-18,22.5
		c-9.9,0-18-10.1-18-22.5v-23.8h-90.8v23.8c0,12.4-8.1,22.5-18,22.5c-10,0-18-10.1-18-22.5v-64.8c0-12.4,8.1-22.5,18-22.5
		c9.9,0,18,10.1,18,22.5v22.5h90.8v-22.5c0-12.4,8.1-22.5,18-22.5c10,0,18,10.1,18,22.5V735.7z"/>
		<path fill='#cca876' class="st0" d="M537.5,243.9h-51.3v51.3h51.3V243.9z M529.4,287.1h-35.1V252h35.1V287.1z"/>
		<path fill='#cca876' class="st0" d="M404.3,370.9c-40.8,0-73.9,33.1-73.9,73.9c0,40.8,33.1,73.9,73.9,73.9c40.8,0,73.9-33.1,73.9-73.9
		C478.2,404,445.1,370.9,404.3,370.9z M409.9,456.4c-5.7,0-10.3-4.6-10.3-10.3c0-5.7,4.6-10.3,10.3-10.3c5.7,0,10.3,4.6,10.3,10.3
		C420.2,451.8,415.6,456.4,409.9,456.4z M430.6,431.7c-11.5,0-20.7-9.3-20.7-20.7c0-11.5,9.3-20.7,20.7-20.7
		c11.5,0,20.7,9.3,20.7,20.7C451.3,422.4,442.1,431.7,430.6,431.7z"/>
		<path fill='#cca876' class="st0" d="M618.6,518.8c40.8,0,73.9-33.1,73.9-73.9c0-40.8-33.1-73.9-73.9-73.9s-73.9,33.1-73.9,73.9
		C544.7,485.7,577.8,518.8,618.6,518.8z M631.8,383.3c11.5,0,20.7,9.3,20.7,20.7c0,11.5-9.3,20.7-20.7,20.7
		c-11.5,0-20.7-9.3-20.7-20.7C611.1,392.6,620.4,383.3,631.8,383.3z M611.1,428.9c5.7,0,10.3,4.6,10.3,10.3
		c0,5.7-4.6,10.3-10.3,10.3c-5.7,0-10.3-4.6-10.3-10.3C600.8,433.5,605.4,428.9,611.1,428.9z"/>
		<path fill='#cca876' class="st0" d="M512,63.5C264.3,63.5,63.5,264.3,63.5,512S264.3,960.5,512,960.5S960.5,759.7,960.5,512S759.7,63.5,512,63.5z
		 M511.9,210.1c32.8,0,59.4,26.6,59.4,59.4c0,17.7-7.7,34.1-21.2,45.4c-29.7-5.7-56.5-3.8-76.5-0.1c-13.4-11.3-21-27.6-21-45.3
		C452.5,236.8,479.1,210.1,511.9,210.1z M434.7,319c0.4-0.1,0.7-0.2,1.1-0.3c1.5-0.5,3-0.9,4.6-1.4l1.6-0.5c1.4-0.4,2.8-0.8,4.2-1.2
		c0.6-0.2,1.2-0.3,1.8-0.5c1.4-0.4,2.8-0.7,4.2-1c0.6-0.1,1.1-0.3,1.7-0.4c1.9-0.5,3.9-0.9,5.9-1.3c1.3,1.5,2.6,3,4,4.5
		c0,0-0.1,0-0.1,0c-0.5,0.1-0.9,0.2-1.4,0.3c-0.7,0.2-1.5,0.4-2.2,0.5c-0.5,0.1-1,0.3-1.5,0.4c-0.7,0.2-1.3,0.3-1.9,0.5
		c-0.4,0.1-0.9,0.2-1.3,0.4c-1,0.3-1.9,0.5-2.8,0.8c-0.4,0.1-0.8,0.2-1.2,0.4l-1.6,0.5l-1.2,0.4c-0.5,0.1-0.9,0.3-1.4,0.4
		c-0.4,0.1-0.7,0.2-1,0.3c-0.6,0.2-1.2,0.4-1.8,0.6c-0.3,0.1-0.6,0.2-0.9,0.3c-0.4,0.1-0.8,0.3-1.1,0.4c-0.3,0.1-0.5,0.2-0.8,0.3
		c-0.3,0.1-0.6,0.2-0.9,0.3c-0.2,0.1-0.4,0.2-0.6,0.2c-0.4,0.2-0.7,0.3-1,0.4c-0.2,0.1-0.3,0.1-0.4,0.2c-0.2,0.1-0.5,0.2-0.7,0.3
		c-0.1,0-0.2,0.1-0.3,0.1l-0.2,0.1l-0.2,0.1c-0.1,0-0.1,0-0.1,0.1c-0.1,0-0.2,0.1-0.2,0.1l-2.1,9.4c0,0,0.1,0,0.2-0.1
		c0,0,0.1-0.1,0.2-0.1l0.2-0.1l0.2-0.1c0.1,0,0.2-0.1,0.4-0.2c0.2-0.1,0.4-0.1,0.6-0.2c0.2-0.1,0.4-0.1,0.6-0.2
		c0.2-0.1,0.5-0.2,0.7-0.3c0.3-0.1,0.5-0.2,0.8-0.3c0.3-0.1,0.5-0.2,0.8-0.3c0.3-0.1,0.6-0.2,1-0.4c0.3-0.1,0.6-0.2,0.9-0.3
		c0.4-0.1,0.8-0.3,1.2-0.4l1-0.3c1.7-0.6,3.6-1.2,5.7-1.8c0.4-0.1,0.8-0.2,1.3-0.4c0.6-0.2,1.2-0.3,1.8-0.5c0.5-0.1,1-0.3,1.5-0.4
		c0.6-0.2,1.3-0.3,1.9-0.5c0.5-0.1,1.1-0.3,1.6-0.4c0.7-0.2,1.4-0.3,2.1-0.5c0.6-0.1,1.2-0.3,1.8-0.4c0.7-0.2,1.4-0.3,2.2-0.5
		c0.6-0.1,1.3-0.3,1.9-0.4c0.7-0.2,1.5-0.3,2.3-0.5l2.1-0.4c0.8-0.2,1.5-0.3,2.3-0.4l0.2,0l0.3,0.3l1.7-0.3
		c7.8-1.3,20.6-2.8,37.1-2.8c12.7,0,25.6,0.9,38.3,2.8l1.7,0.2l0.3-0.3c0,0,0.1,0,0.1,0l0.9,0.2c1.9,0.4,3.7,0.7,5.6,1.2
		c0.5,0.1,1.1,0.2,1.6,0.4c2.1,0.5,4.1,1,6.2,1.5c0.4,0.1,0.9,0.2,1.4,0.4c1.9,0.5,3.8,1.1,5.7,1.6l1.1,0.3c2.2,0.7,4.3,1.4,6.5,2.1
		c0.5,0.2,1,0.3,1.5,0.5c2.2,0.8,4.5,1.6,6.7,2.5l-3.9-9.6c-2.3-0.9-4.6-1.8-6.9-2.6c-0.8-0.3-1.5-0.5-2.3-0.8
		c-1.5-0.5-3.1-1-4.6-1.5c-0.9-0.3-1.8-0.5-2.7-0.8c-1.4-0.4-2.8-0.8-4.2-1.2l-2.7-0.7l-2-0.5l0,0l2.2-2.3l2.1-2.4
		c3,0.6,5.9,1.3,8.8,2c0.7,0.2,1.3,0.3,2,0.5c2.8,0.7,5.7,1.5,8.5,2.3c0.5,0.1,1,0.3,1.5,0.5c2.5,0.7,5,1.5,7.4,2.4
		c0.6,0.2,1.2,0.4,1.8,0.6c2.7,0.9,5.4,1.9,8,2.9c0.7,0.3,1.4,0.5,2.1,0.8c2.4,0.9,4.8,1.9,7.2,2.9l1.1,0.5l0.1,0.1h0l-4.8,1.9
		c-3.1,1.3-6.1,2.6-8.9,3.9l-0.7,0.1c-0.8,0.1-1.6,0.2-2.4,0.4l-0.9,0.1c-0.8,0.1-1.6,0.3-2.4,0.4l-0.9,0.2
		c-0.8,0.1-1.6,0.3-2.5,0.5l-0.8,0.2c-0.9,0.2-1.7,0.3-2.6,0.5l-0.7,0.2c-0.9,0.2-1.9,0.4-3.1,0.7l-0.2,0.1
		c-3.4,0.8-6.8,1.8-10.1,2.8l-0.6,0.2c-0.9,0.3-1.8,0.6-2.7,0.9l-0.9,0.3c-0.8,0.3-1.6,0.5-2.3,0.8l-1.1,0.4
		c-0.7,0.3-1.5,0.6-2.2,0.8l-1.1,0.5c-0.7,0.3-1.4,0.6-2.1,0.9l-1.2,0.5c-0.7,0.3-1.4,0.6-2.1,0.9l-1.2,0.6c-0.7,0.3-1.4,0.7-2.1,1
		l-1.1,0.6c-0.7,0.4-1.4,0.7-2.1,1.1l-1,0.5c-0.8,0.4-1.5,0.9-2.3,1.3l-0.8,0.5c-1,0.6-2,1.2-2.9,1.8l-0.2,0.1c-1,0.6-2.1,1.3-3.1,2
		l-0.6,0.4c-0.8,0.5-1.6,1.1-2.4,1.6l-1,0.7c-0.7,0.5-1.3,1-2,1.5l-1.1,0.9c-0.6,0.5-1.2,0.9-1.8,1.4l-1.2,1c-0.6,0.5-1.1,1-1.7,1.4
		l-1.2,1.1c-0.5,0.5-1.1,1-1.6,1.5l-1.2,1.1c-0.5,0.5-1.1,1-1.6,1.6l-1.1,1.2c-0.5,0.5-1,1.1-1.6,1.7l-1.1,1.2
		c-0.5,0.6-1.1,1.2-1.6,1.8l-1,1.2c-0.5,0.6-1.1,1.3-1.7,2.1l-0.8,1l-0.4,0.5c-19.8-26-49.6-42.1-86.7-47c-4.1-2-8.6-3.8-13.4-5.6
		C419,324.5,426.7,321.6,434.7,319z M562.1,360.4c-14.5,16.7-16.8,31.6-16.9,32.2l-0.6,4.4c-6.3,12-10.3,25.3-11.5,39.4
		c-4.2-5.6-11.3-8.4-21.2-8.4c-9.8,0-16.9,2.8-21.1,8.3c-1.2-13.8-5.1-26.9-11.2-38.6l-0.7-5c-0.1-0.6-2.4-15.6-16.9-32.2
		c-4.3-4.9-10-10.3-17.6-15.7c26.8,7.2,48,21.5,63.1,42.6l4,5.7l4-5.7c0.7-1,1.5-2,2.3-3l0.9-1.1l1.5-1.8l0.9-1.1
		c0.5-0.6,1-1.1,1.5-1.7l1-1.1c0.5-0.5,1-1,1.4-1.6l1.1-1.1c0.5-0.5,1-1,1.5-1.5l1.1-1.1c0.5-0.5,1-0.9,1.5-1.4l1.1-1
		c0.5-0.5,1-0.9,1.7-1.5l1-0.8c0.5-0.4,1.1-0.9,1.7-1.3l1.1-0.8c0.6-0.5,1.2-0.9,1.8-1.4l0.9-0.7c0.7-0.5,1.5-1,2.2-1.5l0.6-0.4
		c0.9-0.6,1.8-1.2,2.8-1.8l0.2-0.1c1-0.6,1.9-1.2,2.9-1.7l0.8-0.4c0.7-0.4,1.5-0.8,2.2-1.2l1-0.5l2-1l1.1-0.5c0.6-0.3,1.3-0.6,2-0.9
		l1.1-0.5c0.7-0.3,1.3-0.6,2-0.9l1.1-0.5c0.7-0.3,1.3-0.6,2-0.8l1.1-0.4c0.7-0.3,1.4-0.5,2.1-0.8l1-0.4c0.7-0.3,1.5-0.5,2.2-0.8
		l0.9-0.3c0.8-0.3,1.7-0.6,2.5-0.8l0.6-0.2c1.8-0.6,3.7-1,5.5-1.5C571.8,350.4,566.3,355.6,562.1,360.4z M634.4,347.5
		c53.5,0,96.8,43.3,96.8,96.8c0,53.5-43.3,96.8-96.8,96.8c-53.5,0-96.8-43.3-96.8-96.8C537.6,390.8,580.9,347.5,634.4,347.5z
		 M511.9,502.5c-9.2-15.3-24.8-46.8-17.2-60.8c2.7-5,8.3-7.5,17.2-7.5c8.8,0,14.4,2.4,17.2,7.5C536.6,455.7,521.1,487.2,511.9,502.5
		z M486.2,444.3c0,53.5-43.3,96.8-96.8,96.8s-96.8-43.3-96.8-96.8c0-53.5,43.3-96.8,96.8-96.8S486.2,390.8,486.2,444.3z
		 M237.7,285.1c10.7,22.1,28.6,26.9,29.5,27.2l8.4,2.1l-2.4-8.3c-3.2-10.9,0.3-23.3,3.7-31.7c13.4,27.4,45.7,45.7,94.3,53.4
		c44.2,6.9,68.2,23.1,80.8,36.4c-17.7-14.1-40.1-22.6-64.5-22.6c-41.6,0-77.5,24.6-94,60l-2.1,0.2c-31-28.2-49.5-60-53.5-91.9
		C236.6,300.1,236.9,291.8,237.7,285.1z M258.4,560.4c0-3.3,0.1-6.6,0.2-9.8c0-0.3,0-0.6,0-0.9c0.1-3.1,0.3-6.2,0.6-9.3
		c0-0.4,0.1-0.9,0.1-1.3c0.3-3,0.6-6,0.9-9c0.1-0.5,0.1-0.9,0.2-1.4c0.4-3,0.8-6,1.3-8.9c0.1-0.4,0.1-0.8,0.2-1.2c0.5-3,1.1-6,1.7-9
		c0.1-0.3,0.1-0.5,0.2-0.8c1.3-6.4,2.9-12.8,4.7-19c0,0,0,0,0-0.1c0.9-3.1,1.9-6.2,2.9-9.2c0.1-0.2,0.1-0.3,0.2-0.5
		c1-3,2.1-5.9,3.2-8.9c0.1-0.2,0.2-0.4,0.2-0.6c1.1-2.9,2.3-5.8,3.5-8.7c0.1-0.2,0.1-0.3,0.2-0.5c1.3-2.9,2.6-5.9,3.9-8.8
		c0.4-0.9,0.9-1.8,1.3-2.6c1.8,39.9,26.2,73.9,60.7,89.7c13.2,9,35.4,28.2,47.6,61.4c16.9,46,10,103.3-20.6,170.3
		C303.4,725.9,258.4,648.3,258.4,560.4z M511.9,813.9c-46.9,0-90.8-12.8-128.5-35.1c32.9-71.3,40.2-132.8,21.7-182.8
		c-7.6-20.5-18.5-36.1-29.2-47.7c3.8,0.4,7.7,0.7,11.7,0.7c49.8,0,91.5-35.3,101.4-82.1c5.7,20.6,19.5,42,20.3,43.4l2.6,4.1l2.6-4.1
		c0.9-1.3,14.7-22.9,20.4-43.6c9.9,47,51.6,82.3,101.5,82.3c4.3,0,8.5-0.3,12.7-0.8c-10.8,11.6-21.7,27.2-29.4,47.8
		c-18.5,49.9-11.2,111.3,21.5,182.4C603.3,800.9,559.1,813.9,511.9,813.9z M652.9,770.9C622.5,704.1,615.7,647,632.5,601
		c12.9-35.2,37.1-54.7,49.9-62.9c32.8-16.3,55.8-49.4,57.6-88c0.1,0.3,0.3,0.6,0.4,0.8c0.4,0.8,0.8,1.6,1.1,2.4
		c1.1,2.4,2.2,4.8,3.2,7.2c0.2,0.4,0.4,0.8,0.5,1.2c1.2,2.9,2.4,5.8,3.5,8.7l0.6,1.6c0.9,2.4,1.7,4.7,2.5,7.1
		c0.3,0.9,0.6,1.8,0.9,2.8c0.7,2,1.3,4.1,1.9,6.2l0.9,3c0.6,2.1,1.2,4.2,1.7,6.3c0.2,0.9,0.5,1.9,0.7,2.8c0.7,2.7,1.3,5.4,1.8,8.1
		c0.1,0.4,0.2,0.7,0.2,1.1c0.6,3.1,1.2,6.2,1.7,9.3c0.1,0.9,0.3,1.7,0.4,2.6c0.3,2.2,0.7,4.5,1,6.8c0.1,1.1,0.3,2.2,0.4,3.4
		c0.2,2.1,0.4,4.2,0.6,6.2c0.1,1.2,0.2,2.3,0.3,3.5c0.2,2.2,0.3,4.4,0.4,6.6c0,1,0.1,2,0.2,3.1c0.1,3.2,0.2,6.4,0.2,9.7
		C765.3,648,720.7,725.3,652.9,770.9z M732.7,401.7l-2.4-0.2c-16.5-35.4-52.4-60-94-60c-23.9,0-45.9,8.1-63.4,21.8
		c7.5-7.6,18.9-16.2,35.7-23.3l0.4-0.2l4-1.6c11-4.3,24.1-7.9,39.9-10.4c48.6-7.6,80.9-26,94.3-53.4c3.4,8.4,6.9,20.8,3.7,31.7
		l-2.4,8.3l8.4-2.1c0.9-0.2,18.8-5,29.5-27.1C789,308.5,785.4,353.8,732.7,401.7z"/>
	</symbol>
	<symbol id="about_history_07" viewBox="0 0 1024 1024">
		<path fill='#cca876' class="st0" d="M512,63.5C264.3,63.5,63.5,264.3,63.5,512S264.3,960.5,512,960.5S960.5,759.7,960.5,512S759.7,63.5,512,63.5z
	 M656.4,796.3L656.4,796.3c-43.9,27.5-168.8-39.4-269.2-204.9c-100.5-165.5-103.1-308.6-59.2-336c38.1-23.8,88.3-69.3,128.3,15.8
	c40,85.2,7.6,98.3-31.6,122.9c-27.5,17.1,5.8,85.7,43,147c37.3,61.3,82.6,122.3,110.1,105.2c39.3-24.5,65.4-47.9,122.4,26.7
	C757.2,747.6,694.5,772.5,656.4,796.3z"/>
	</symbol>
	<symbol id="about_history_08" viewBox="0 0 1024 1024">
		<path fill='#cca876' class="st0" d="M512,63.5C264.3,63.5,63.5,264.3,63.5,512S264.3,960.5,512,960.5S960.5,759.7,960.5,512S759.7,63.5,512,63.5z
	 M312.6,329.2h398.8c20.1,0,37.5,12,45.3,29.3c-4.3-1.1-9-0.5-13.1,2.1L531.1,495.9c-10,6.4-28.2,6.4-38.2,0L275.6,357.8
	c-2.1-1.4-4.4-2.2-6.8-2.5C277.2,339.8,293.7,329.2,312.6,329.2z M761.1,645.1c0,27.4-22.3,49.8-49.8,49.8H312.6
	c-27.4,0-49.8-22.3-49.8-49.8V389l212.3,134.8c10.1,6.4,23.2,9.9,36.9,9.9c13.7,0,26.8-3.5,36.9-9.9l212.3-135.2V645.1z"/>
	</symbol>
	<symbol id="about_history_09" viewBox="0 0 1024 1024">
		<path fill='#cca876' class="st1" d="M600.5,544c-6.5,0-12,4.4-13.5,10.4l-0.3,1.7l-0.1,1.7l-0.1,3.6c-1.9,40.2-35.3,72.2-76.3,72.2
		c-42.1,0-76.2-33.8-76.4-75.5c0-0.1,0-0.2,0-0.3c0-7.6-6.2-13.8-13.9-13.8c-7.7,0-13.9,6.2-13.9,13.8
		c0,57.1,46.6,103.3,104.1,103.3c57.5,0,104.1-46.3,104.1-103.3C614.4,550.2,608.1,544,600.5,544z"/>
		<path fill='#cca876' class="st1" d="M610.9,428.9c-8.6-4.9-19.2-4.9-27.8,0c-8.6,4.9-13.9,14-13.9,23.9s5.3,18.9,13.9,23.9
		c8.6,4.9,19.2,4.9,27.8,0c8.6-4.9,13.9-14,13.9-23.9S619.5,433.9,610.9,428.9z"/>
		<path fill='#cca876' class="st1" d="M433.9,476.7c8.6-4.9,13.9-14,13.9-23.9s-5.3-18.9-13.9-23.9c-8.6-4.9-19.2-4.9-27.8,0
		c-8.6,4.9-13.9,14-13.9,23.9s5.3,18.9,13.9,23.9C414.7,481.6,425.3,481.6,433.9,476.7z"/>
		<path fill='#cca876' class="st1" d="M512,63.5C264.3,63.5,63.5,264.3,63.5,512S264.3,960.5,512,960.5S960.5,759.7,960.5,512S759.7,63.5,512,63.5z
		 M289.9,511.2c0-121.8,99.4-220.5,222.1-220.5s222.1,98.7,222.1,220.5c0,121.8-99.4,220.5-222.1,220.5S289.9,632.9,289.9,511.2z
		 M791.5,580.6c-22,87.5-84.7,159.1-166.9,193.8c-1.6,13.7-13.3,24.3-27.6,24.3c-15.3,0-27.8-12.3-27.8-27.5
		c0-15.2,12.4-27.6,27.8-27.6c6.2,0,12,2,16.6,5.4c93.3-39.3,158.7-131,158.7-237.9c0-142.7-116.5-258.3-260.3-258.3
		S251.7,368.5,251.7,511.2c0,17.3,1.7,34.1,5,50.5c0.1,0.3,0.1,0.6,0.2,0.9c0.1,0.8,0.2,1.5,0.2,2.3c0,10-7.4,16.2-20.4,16.2
		c-0.7,0-1.4-0.1-2-0.1l-0.3,0l-0.3-0.1c-0.1,0-0.3,0-0.4-0.1c-27.3-5.1-48.1-28.9-48.1-57.5c0-26.3,17.5-48.6,41.6-56
		c21.3-137.1,140.6-242,284.7-242s263.4,104.9,284.7,242c24.1,7.4,41.6,29.6,41.6,56C838.3,551.5,818.2,575,791.5,580.6z"/>
	</symbol>


</svg>
</defs>

</svg>
